<svg width="650" height="241" viewBox="0 0 650 241" fill="none" xmlns="http://www.w3.org/2000/svg">
<path d="M182.496 236.79H112.115V199.508H0.271579V145.503L84.9379 4.39269H182.496V138.186H209.324V199.508H182.496V236.79ZM112.115 138.186V65.018L68.2137 138.186H112.115ZM382.051 223.898C366.256 235.28 347.209 240.971 324.91 240.971C302.611 240.971 283.448 235.28 267.421 223.898C251.626 212.284 240.012 197.65 232.579 179.997C225.378 162.111 221.778 142.367 221.778 120.765C221.778 87.0846 230.72 58.7464 248.606 35.7506C266.492 12.5225 291.926 0.908483 324.91 0.908483C357.894 0.908483 383.329 12.5225 401.214 35.7506C419.1 58.7464 428.043 87.0846 428.043 120.765C428.043 142.367 424.326 162.111 416.893 179.997C409.693 197.65 398.079 212.284 382.051 223.898ZM292.507 120.765C292.507 159.556 303.308 178.952 324.91 178.952C346.512 178.952 357.313 159.556 357.313 120.765C357.313 82.2067 346.512 62.9274 324.91 62.9274C303.308 62.9274 292.507 82.2067 292.507 120.765ZM622.786 236.79H552.405V199.508H440.561V145.503L525.228 4.39269H622.786V138.186H649.614V199.508H622.786V236.79ZM552.405 138.186V65.018L508.504 138.186H552.405Z" fill="white"/>
</svg>
