<svg width="650" height="241" fill="none" xmlns="http://www.w3.org/2000/svg"><path d="M182.496 236.79h-70.381v-37.282H.272v-54.005L84.938 4.393h97.558v133.793h26.828v61.322h-26.828v37.282zm-70.381-98.604V65.018l-43.901 73.168h43.901zm269.936 85.712c-15.795 11.382-34.842 17.073-57.141 17.073s-41.462-5.691-57.489-17.073c-15.795-11.614-27.409-26.248-34.842-43.901-7.201-17.886-10.801-37.63-10.801-59.232 0-33.68 8.942-62.019 26.828-85.014C266.492 12.523 291.926.908 324.91.908s58.419 11.615 76.304 34.843c17.886 22.995 26.829 51.334 26.829 85.014 0 21.602-3.717 41.346-11.15 59.232-7.2 17.653-18.814 32.287-34.842 43.901zm-89.544-103.133c0 38.791 10.801 58.187 32.403 58.187 21.602 0 32.403-19.396 32.403-58.187 0-38.558-10.801-57.838-32.403-57.838-21.602 0-32.403 19.28-32.403 57.838zM622.786 236.79h-70.381v-37.282H440.561v-54.005l84.667-141.11h97.558v133.793h26.828v61.322h-26.828v37.282zm-70.381-98.604V65.018l-43.901 73.168h43.901z" fill="#fff"/></svg>