<svg width="582" height="571" viewBox="0 0 582 571" fill="none" xmlns="http://www.w3.org/2000/svg">
<path d="M226.85 464.863L216.874 453.683L196.346 456.673L193.407 493.183L220.398 498.404L226.85 464.863Z" fill="#BCBCA3"/>
<path opacity="0.5" d="M217.672 454.572L216.864 459.743L196.012 460.541V462.692L216.359 462.945L215.682 467.278L195.164 468.055V470.196L215.188 470.459L214.39 475.569L194.77 476.286L193.407 493.183L220.398 498.404L226.85 464.864L217.672 454.572Z" fill="#3F2C23"/>
<path opacity="0.3" d="M236.352 293.524L235.928 289.767L241.845 294.867L236.352 293.524Z" fill="#3F2C23"/>
<path opacity="0.3" d="M238.887 296.473L246.278 302.644L244.38 297.554L238.887 296.473Z" fill="#3F2C23"/>
<path d="M170.153 352.122L169.759 346.88L166.75 347.254L166.437 343.062L164.105 343.345L163.782 339.8L160.359 340.305L160.672 343.759L158.329 344.042L158.521 346.597L154.472 347.092L154.916 353.101L161.984 352.243L162.045 353.101L170.153 352.122Z" fill="#59807E"/>
<path opacity="0.6" d="M160.611 347.213L160.217 345.012L161.722 343.699V340.881L163.761 339.8L160.359 340.305L160.672 343.759L158.329 344.042L158.521 346.597L154.472 347.092L154.916 353.101L158.733 352.637L158.238 348.122L160.611 347.213Z" fill="#FFF9C4"/>
<path d="M482.277 523.421C482.277 507.13 395.014 512.008 290.969 512.008C186.925 512.008 102.58 525.218 102.58 541.499C102.58 557.79 186.925 571 290.969 571C395.014 571 482.277 539.711 482.277 523.421Z" fill="#EFD3B1"/>
<path d="M418.552 506.231C391.844 506.231 311.559 508.807 267.382 508.807C202.263 508.807 149.474 517.644 149.474 528.541C149.474 539.449 202.263 548.286 267.382 548.286C332.501 548.286 385.301 539.449 385.301 528.541C385.301 528.026 385.18 527.531 384.958 527.027C393.662 529.127 405.496 530.43 418.552 530.43C445.26 530.43 466.909 525.017 466.909 518.341C466.909 511.645 445.26 506.231 418.552 506.231Z" fill="#EFAF7A"/>
<path d="M296.563 253.217L294.18 253.146L292.524 337.114L294.907 337.185L296.563 253.217Z" fill="#5570BA"/>
<path d="M291 265.568L288.617 265.498L286.961 349.465L289.344 349.536L291 265.568Z" fill="#5570BA"/>
<path d="M301.34 278.91L298.947 278.839L297.291 362.807L299.684 362.878L301.34 278.91Z" fill="#5570BA"/>
<path d="M203.728 240.986L201.91 241.168L203.061 319.672L204.879 319.5L203.728 240.986Z" fill="#5570BA"/>
<path d="M198.446 253.934L196.618 254.105L198.113 332.407L199.94 332.236L198.446 253.934Z" fill="#5570BA"/>
<path d="M214.057 263.054L212.239 263.225L212.795 341.82L214.612 341.639L214.057 263.054Z" fill="#5570BA"/>
<path d="M358.26 475.014L358.502 528.673L366.085 529.057V475.014H358.26Z" fill="#5570BA"/>
<path d="M327.452 472.782L328.119 525.986L335.702 526.38L335.288 472.782H327.452Z" fill="#5570BA"/>
<path d="M344.971 303.624L341.447 303.482L344.487 529.461L348.001 529.602L344.971 303.624Z" fill="#5570BA"/>
<path d="M330.512 320.258L324.564 320.025L325.958 525.784L331.905 526.016L330.512 320.258Z" fill="#5570BA"/>
<path d="M317.92 227.2L312.639 224.019L305.753 229.947L304.238 500.182L312.801 500.616L317.92 227.2Z" fill="#A5BFF9"/>
<path d="M317.95 342.093L317.92 227.2L312.639 224.019L312.417 224.221L311.831 342.598L317.95 342.093Z" fill="#5570BA"/>
<path d="M238.937 206.334L234.535 203.385L230.364 206.334V304.482H238.937V206.334Z" fill="#A5BFF9"/>
<path d="M239.331 305.704V207.567L234.929 204.618L234.727 204.759V305.704H239.331Z" fill="#5570BA"/>
<path d="M188.944 259.367L184.148 255.883L180.382 260.014L179.019 357.081L189.419 356.293L188.944 259.367Z" fill="#A5BFF9"/>
<path opacity="0.3" d="M189.601 349.849L188.945 259.367L184.149 255.883L183.25 256.873L183.886 351.031L189.601 349.849Z" fill="#5570BA"/>
<path d="M268.584 238.633L265.534 235.633L262.697 238.461L257.81 500.374L263.696 500.535L268.584 238.633Z" fill="#A5BFF9"/>
<path d="M267.059 320.611L268.583 238.633L265.594 235.694L264.534 320.611H267.059Z" fill="#5570BA"/>
<path d="M366.751 363.019L243.804 286.606L128.208 362.363L128.612 367.796L242.219 399.247L367.277 369.029L366.751 363.019Z" fill="#A5BFF9"/>
<path d="M367.276 368.948L244.329 292.534L128.278 367.635L242.744 405.175L367.276 368.948Z" fill="#5570BA"/>
<path d="M173.92 364.343L244.471 325.308L318.597 366.807V395.803L173.92 394.661V364.343Z" fill="#7A99DD"/>
<path d="M244.865 336.993L230.951 345.81V355.445L220.722 360.141L220.823 349.274L173.92 373.705V394.661L243.542 396.449L244.865 336.993Z" fill="#A5BFF9"/>
<path d="M187.43 344.325L183.654 341.861L178.292 345.537V396.449L187.612 395.379L187.43 344.325Z" fill="#A5BFF9"/>
<path opacity="0.3" d="M187.612 394.51L187.43 344.325L183.654 341.861L183.018 342.295V395.752L187.612 394.51Z" fill="#5570BA"/>
<path d="M318.597 394.177V366.807L244.471 325.308L243.693 393.682L318.597 394.177Z" fill="#7A99DD"/>
<path d="M366.751 401.64L243.804 349.85L127.743 400.741L128.803 404.852L242.219 426.192L367.276 405.589L366.751 401.64Z" fill="#A5BFF9"/>
<path d="M367.276 405.66L244.329 353.869L128.278 404.761L242.744 430.212L367.276 405.66Z" fill="#5570BA"/>
<path d="M174.242 405.842L244.329 376.522L315.092 408.316L314.971 436.312L174.242 435.393V405.842Z" fill="#7A99DD"/>
<path opacity="0.4" d="M243.673 400.529L238.11 403.488L238.211 410.346L211.23 417.446L208.251 408.437L203.728 434.747L244.067 442.897L243.673 400.529Z" fill="#A5BFF9"/>
<path opacity="0.3" d="M314.971 436.312L315.092 408.316L244.329 376.522L242.875 432.848L314.971 436.312Z" fill="#7A99DD"/>
<path d="M367.277 441.382L244.663 408.316L128.208 440.422L128.309 444.745L242.219 458.016L367.085 445.24L367.277 441.382Z" fill="#A5BFF9"/>
<path opacity="0.3" d="M194.387 432.353L196.508 421.486L154.512 433.181L153.846 436.807L194.387 432.353Z" fill="#684D69"/>
<path d="M367.276 445.22L244.329 412.952L128.278 444.664L242.744 460.521L367.276 445.22Z" fill="#5570BA"/>
<path d="M174.242 445.442L246.49 429.979L315.092 445.826L314.971 485.224L174.242 484.305V445.442Z" fill="#7A99DD"/>
<path d="M245.662 449.32L213.865 453.522L202.334 475.751L243.673 483.406L245.662 449.32Z" fill="#A5BFF9"/>
<path d="M246.722 429.889L245.662 485.386L315.214 485.881V445.695L246.722 429.889Z" fill="#7A99DD"/>
<path d="M367.075 472.287L243.279 455.491L128.41 472.044L128.208 476.003L242.219 485.356L367.085 476.367L367.075 472.287Z" fill="#A5BFF9"/>
<path opacity="0.3" d="M181.271 471.055C185.653 468.752 187.218 467.096 188.42 463.48L140.194 469.903L139.932 475.004L181.271 471.055Z" fill="#684D69"/>
<path d="M367.276 476.326L244.329 461.672L128.278 476.074L242.875 485.881L367.276 476.326Z" fill="#5570BA"/>
<path d="M164.186 478.932L243.057 470.428L329.654 478.801L330.239 526.996L163.853 525.895L164.186 478.932Z" fill="#7A99DD"/>
<path d="M243.057 470.428V526.42L317.667 526.905L321.171 476.983L243.057 470.428Z" fill="#7A99DD"/>
<path d="M303.461 293.716L340.054 277.96L340.256 337.164L302.098 344.577L303.461 293.716Z" fill="#A5BFF9"/>
<path d="M340.054 277.96L364.389 296.241L364.106 353.223L340.054 336.912V277.96Z" fill="#7A99DD"/>
<path d="M302.098 344.578L332.309 356.435L364.106 353.223L340.054 336.912L302.098 344.578Z" fill="#5570BA"/>
<path d="M309.65 517.008H290.172V528.865H309.65V517.008Z" fill="#EA6A50"/>
<path d="M311.639 504.656H292.161V516.513H311.639V504.656Z" fill="#EA6A50"/>
<path d="M321.576 493.789H302.098V505.645H321.576V493.789Z" fill="#EA6A50"/>
<path d="M326.746 517.502H307.268V529.359H326.746V517.502Z" fill="#EA6A50"/>
<path d="M331.118 504.656H311.64V516.513H331.118V504.656Z" fill="#8D8E74"/>
<path d="M338.075 495.263H318.597V507.12H338.075V495.263Z" fill="#EA6A50"/>
<path d="M344.033 506.878H332.107V518.735H344.033V506.878Z" fill="#EA6A50"/>
<path d="M339.458 517.998H327.533V529.854H339.458V517.998Z" fill="#8D8E74"/>
<path d="M324.958 519.967H313.033V531.824H324.958V519.967Z" fill="#EA6A50"/>
<path d="M304.884 507.868H295.342V519.725H304.884V507.868Z" fill="#EA6A50"/>
<path d="M295.342 505.393H291.363V517.25H295.342V505.393Z" fill="#F49076"/>
<path d="M328.926 506.141H317.001V517.997H328.926V506.141Z" fill="#EA6A50"/>
<path d="M332.309 493.789H320.384V505.645H332.309V493.789Z" fill="#EA6A50"/>
<path d="M336.085 519.967H324.16V531.824H336.085V519.967Z" fill="#EA6A50"/>
<path d="M337.872 508.362H325.947V520.219H337.872V508.362Z" fill="#EA6A50"/>
<path d="M336.479 502.929H324.554V514.786H336.479V502.929Z" fill="#EA6A50"/>
<path d="M348 517.745H336.075V529.602H348V517.745Z" fill="#EA6A50"/>
<path d="M313.033 519.725H301.107V531.582H313.033V519.725Z" fill="#F49076"/>
<path d="M317.001 506.625H305.076V518.482H317.001V506.625Z" fill="#F49076"/>
<path d="M320.576 494.273H312.629V505.141H320.576V494.273Z" fill="#F49076"/>
<path opacity="0.5" d="M285.133 478.286V526.693L254.578 526.511L254.79 475.155L285.133 478.286Z" fill="#5570BA"/>
<path d="M192.388 482.952V526.087L222.943 526.289L222.731 479.831L192.388 482.952Z" fill="#5570BA"/>
<path d="M192.388 445.563V462.571L222.943 458.42L222.731 439.443L192.388 445.563Z" fill="#5570BA"/>
<path d="M192.388 405.367V422.375L223.054 414.305L222.832 395.328L192.388 405.367Z" fill="#5570BA"/>
<path d="M192.388 358.878V372.27L223.054 358.949L222.832 343.184L192.388 358.878Z" fill="#5570BA"/>
<path d="M285.133 438.766V461.167L254.578 457.026L254.79 431.626L285.133 438.766Z" fill="#5570BA"/>
<path d="M285.133 397.812V419.122L254.578 410.78L254.79 384.481L285.133 397.812Z" fill="#5570BA"/>
<path d="M285.133 351.253V367.251L254.578 354.384L254.79 334.347L285.133 351.253Z" fill="#5570BA"/>
<path d="M455.185 534.763L411.928 545.802V527.289L455.185 517.321V534.763Z" fill="#F47756"/>
<path d="M455.186 517.321L414.503 505.565L371.145 514.614L411.928 527.289L455.186 517.321Z" fill="#F49076"/>
<path d="M411.928 545.801L371.145 531.995V514.614L411.928 527.289V545.801Z" fill="#EA6A50"/>
<path d="M427.296 517.755H426.418C426.044 517.755 425.741 517.452 425.741 517.078V153.908C425.741 153.534 426.044 153.231 426.418 153.231H427.296C427.67 153.231 427.973 153.534 427.973 153.908V517.068C427.983 517.452 427.67 517.755 427.296 517.755Z" fill="#EFD3B1"/>
<path d="M415.311 277.688L405.577 272.618L415.311 267.548L425.045 272.618L415.311 277.688Z" stroke="#EFD3B1" stroke-miterlimit="10"/>
<path d="M405.577 272.618H424.288" stroke="#EFD3B1" stroke-miterlimit="10"/>
<path d="M415.311 287.252L405.577 282.182L415.311 277.112L425.045 282.182L415.311 287.252Z" stroke="#EFD3B1" stroke-miterlimit="10"/>
<path d="M405.577 282.182H424.288" stroke="#EFD3B1" stroke-miterlimit="10"/>
<path d="M415.311 296.817L405.577 291.747L415.311 286.677L425.045 291.747L415.311 296.817Z" stroke="#EFD3B1" stroke-miterlimit="10"/>
<path d="M405.577 291.747H424.288" stroke="#EFD3B1" stroke-miterlimit="10"/>
<path d="M415.311 306.381L405.577 301.311L415.311 296.241L425.045 301.311L415.311 306.381Z" stroke="#EFD3B1" stroke-miterlimit="10"/>
<path d="M405.577 301.311H424.288" stroke="#EFD3B1" stroke-miterlimit="10"/>
<path d="M415.311 315.935L405.577 310.865L415.311 305.805L425.045 310.865L415.311 315.935Z" stroke="#EFD3B1" stroke-miterlimit="10"/>
<path d="M405.577 310.865H424.288" stroke="#EFD3B1" stroke-miterlimit="10"/>
<path d="M415.311 325.499L405.577 320.429L415.311 315.359L425.045 320.429L415.311 325.499Z" stroke="#EFD3B1" stroke-miterlimit="10"/>
<path d="M405.577 320.429H424.288" stroke="#EFD3B1" stroke-miterlimit="10"/>
<path d="M415.311 335.064L405.577 329.994L415.311 324.924L425.045 329.994L415.311 335.064Z" stroke="#EFD3B1" stroke-miterlimit="10"/>
<path d="M405.577 329.994H424.288" stroke="#EFD3B1" stroke-miterlimit="10"/>
<path d="M415.311 344.628L405.577 339.558L415.311 334.488L425.045 339.558L415.311 344.628Z" stroke="#EFD3B1" stroke-miterlimit="10"/>
<path d="M405.577 339.558H424.288" stroke="#EFD3B1" stroke-miterlimit="10"/>
<path d="M415.311 354.182L405.577 349.122L415.311 344.052L425.045 349.122L415.311 354.182Z" stroke="#EFD3B1" stroke-miterlimit="10"/>
<path d="M405.577 349.122H424.288" stroke="#EFD3B1" stroke-miterlimit="10"/>
<path d="M415.311 363.746L405.577 358.676L415.311 353.606L425.045 358.676L415.311 363.746Z" stroke="#EFD3B1" stroke-miterlimit="10"/>
<path d="M405.577 358.676H424.288" stroke="#EFD3B1" stroke-miterlimit="10"/>
<path d="M415.311 373.311L405.577 368.241L415.311 363.171L425.045 368.241L415.311 373.311Z" stroke="#EFD3B1" stroke-miterlimit="10"/>
<path d="M405.577 368.241H424.288" stroke="#EFD3B1" stroke-miterlimit="10"/>
<path d="M415.311 382.875L405.577 377.805L415.311 372.735L425.045 377.805L415.311 382.875Z" stroke="#EFD3B1" stroke-miterlimit="10"/>
<path d="M405.577 377.805H424.288" stroke="#EFD3B1" stroke-miterlimit="10"/>
<path d="M415.311 392.439L405.577 387.369L415.311 382.299L425.045 387.369L415.311 392.439Z" stroke="#EFD3B1" stroke-miterlimit="10"/>
<path d="M405.577 387.369H424.288" stroke="#EFD3B1" stroke-miterlimit="10"/>
<path d="M415.311 401.994L405.577 396.924L415.311 391.864L425.045 396.924L415.311 401.994Z" stroke="#EFD3B1" stroke-miterlimit="10"/>
<path d="M405.577 396.924H424.288" stroke="#EFD3B1" stroke-miterlimit="10"/>
<path d="M415.311 411.558L405.577 406.488L415.311 401.418L425.045 406.488L415.311 411.558Z" stroke="#EFD3B1" stroke-miterlimit="10"/>
<path d="M405.577 406.488H424.288" stroke="#EFD3B1" stroke-miterlimit="10"/>
<path d="M415.311 421.122L405.577 416.052L415.311 410.982L425.045 416.052L415.311 421.122Z" stroke="#EFD3B1" stroke-miterlimit="10"/>
<path d="M405.577 416.052H424.288" stroke="#EFD3B1" stroke-miterlimit="10"/>
<path d="M415.311 430.686L405.577 425.616L415.311 420.546L425.045 425.616L415.311 430.686Z" stroke="#EFD3B1" stroke-miterlimit="10"/>
<path d="M405.577 425.616H424.288" stroke="#EFD3B1" stroke-miterlimit="10"/>
<path d="M415.311 439.725L405.577 434.655L415.311 429.585L425.045 434.655L415.311 439.725Z" stroke="#EFD3B1" stroke-miterlimit="10"/>
<path d="M405.577 434.655H424.288" stroke="#EFD3B1" stroke-miterlimit="10"/>
<path d="M415.311 449.28L405.577 444.21L415.311 439.15L425.045 444.21L415.311 449.28Z" stroke="#EFD3B1" stroke-miterlimit="10"/>
<path d="M405.577 444.21H424.288" stroke="#EFD3B1" stroke-miterlimit="10"/>
<path d="M415.311 458.844L405.577 453.774L415.311 448.704L425.045 453.774L415.311 458.844Z" stroke="#EFD3B1" stroke-miterlimit="10"/>
<path d="M405.577 453.774H424.288" stroke="#EFD3B1" stroke-miterlimit="10"/>
<path d="M415.311 468.409L405.577 463.339L415.311 458.269L425.045 463.339L415.311 468.409Z" stroke="#EFD3B1" stroke-miterlimit="10"/>
<path d="M405.577 463.338H424.288" stroke="#EFD3B1" stroke-miterlimit="10"/>
<path d="M415.311 477.973L405.577 472.903L415.311 467.833L425.045 472.903L415.311 477.973Z" stroke="#EFD3B1" stroke-miterlimit="10"/>
<path d="M405.577 472.902H424.288" stroke="#EFD3B1" stroke-miterlimit="10"/>
<path d="M415.311 487.527L405.577 482.467L415.311 477.397L425.045 482.467L415.311 487.527Z" stroke="#EFD3B1" stroke-miterlimit="10"/>
<path d="M405.577 482.467H424.288" stroke="#EFD3B1" stroke-miterlimit="10"/>
<path d="M415.311 497.091L405.577 492.021L415.311 486.951L425.045 492.021L415.311 497.091Z" stroke="#EFD3B1" stroke-miterlimit="10"/>
<path d="M405.577 492.021H424.288" stroke="#EFD3B1" stroke-miterlimit="10"/>
<path d="M415.311 506.656L405.577 501.586L415.311 496.516L425.045 501.586L415.311 506.656Z" stroke="#EFD3B1" stroke-miterlimit="10"/>
<path d="M405.577 501.585H424.288" stroke="#EFD3B1" stroke-miterlimit="10"/>
<path d="M415.311 181.671L405.577 176.611L415.311 171.542L425.045 176.611L415.311 181.671Z" stroke="#EFD3B1" stroke-miterlimit="10"/>
<path d="M405.577 176.611H424.288" stroke="#EFD3B1" stroke-miterlimit="10"/>
<path d="M415.311 191.236L405.577 186.166L415.311 181.096L425.045 186.166L415.311 191.236Z" stroke="#EFD3B1" stroke-miterlimit="10"/>
<path d="M405.577 186.166H424.288" stroke="#EFD3B1" stroke-miterlimit="10"/>
<path d="M415.311 200.8L405.577 195.73L415.311 190.66L425.045 195.73L415.311 200.8Z" stroke="#EFD3B1" stroke-miterlimit="10"/>
<path d="M405.577 195.729H424.288" stroke="#EFD3B1" stroke-miterlimit="10"/>
<path d="M415.311 210.364L405.577 205.294L415.311 200.224L425.045 205.294L415.311 210.364Z" stroke="#EFD3B1" stroke-miterlimit="10"/>
<path d="M405.577 205.294H424.288" stroke="#EFD3B1" stroke-miterlimit="10"/>
<path d="M415.311 219.929L405.577 214.859L415.311 209.789L425.045 214.859L415.311 219.929Z" stroke="#EFD3B1" stroke-miterlimit="10"/>
<path d="M405.577 214.858H424.288" stroke="#EFD3B1" stroke-miterlimit="10"/>
<path d="M415.311 229.482L405.577 224.412L415.311 219.353L425.045 224.412L415.311 229.482Z" stroke="#EFD3B1" stroke-miterlimit="10"/>
<path d="M405.577 224.413H424.288" stroke="#EFD3B1" stroke-miterlimit="10"/>
<path d="M415.311 239.047L405.577 233.977L415.311 228.907L425.045 233.977L415.311 239.047Z" stroke="#EFD3B1" stroke-miterlimit="10"/>
<path d="M405.577 233.977H424.288" stroke="#EFD3B1" stroke-miterlimit="10"/>
<path d="M415.311 248.611L405.577 243.541L415.311 238.471L425.045 243.541L415.311 248.611Z" stroke="#EFD3B1" stroke-miterlimit="10"/>
<path d="M405.577 243.541H424.288" stroke="#EFD3B1" stroke-miterlimit="10"/>
<path d="M415.311 258.176L405.577 253.106L415.311 248.036L425.045 253.106L415.311 258.176Z" stroke="#EFD3B1" stroke-miterlimit="10"/>
<path d="M405.577 253.105H424.288" stroke="#EFD3B1" stroke-miterlimit="10"/>
<path d="M415.311 267.74L405.577 262.67L415.311 257.6L425.045 262.67L415.311 267.74Z" stroke="#EFD3B1" stroke-miterlimit="10"/>
<path d="M405.577 262.669H424.288" stroke="#EFD3B1" stroke-miterlimit="10"/>
<path d="M415.139 163.351L403.355 169.35V151.675L415.139 145.676V163.351Z" fill="#F47756"/>
<path d="M415.14 163.421L427.953 169.915V152.241L415.14 145.757V163.421Z" fill="#F49076"/>
<path d="M415.14 148.353V104.995C415.14 104.935 415.251 104.924 415.261 104.985L427.267 152.978" stroke="#EFD3B1" stroke-miterlimit="10"/>
<path d="M415.139 146.969L423.217 140.222C423.51 139.98 423.51 139.576 423.217 139.334L415.927 133.244C415.634 133.001 415.634 132.597 415.927 132.355L420.259 128.729C420.551 128.487 420.551 128.083 420.259 127.84L415.775 124.103C415.482 123.861 415.482 123.457 415.775 123.215L418.552 120.892C418.845 120.649 418.845 120.245 418.552 120.003L416.088 117.953C415.795 117.71 415.795 117.306 416.088 117.064L417.421 115.953C417.714 115.711 417.714 115.307 417.421 115.064L415.008 113.044" stroke="#EFD3B1" stroke-miterlimit="10"/>
<path d="M415.018 146.969L407.516 140.222C407.243 139.98 407.243 139.576 407.516 139.334L414.281 133.244C414.554 133.001 414.554 132.597 414.281 132.355L410.252 128.729C409.98 128.487 409.98 128.083 410.252 127.84L414.413 124.103C414.685 123.861 414.685 123.457 414.413 123.215L411.838 120.892C411.565 120.649 411.565 120.245 411.838 120.003L414.12 117.953C414.392 117.71 414.392 117.306 414.12 117.064L412.878 115.953C412.605 115.711 412.605 115.307 412.878 115.064L415.119 113.044" stroke="#EFD3B1" stroke-miterlimit="10"/>
<path d="M404.366 517.291H403.487C403.113 517.291 402.811 516.988 402.811 516.614V153.908C402.811 153.534 403.113 153.231 403.487 153.231H404.366C404.739 153.231 405.042 153.534 405.042 153.908V516.604C405.042 516.988 404.739 517.291 404.366 517.291Z" fill="#EFAF7A"/>
<path d="M417.714 162.391L430.538 168.885L429.356 145L420.925 146.959L417.805 152.332L417.714 162.391Z" fill="#F47756"/>
<path d="M415.785 520.886H414.866C414.503 520.886 414.21 520.593 414.21 520.229V146.838C414.21 146.474 414.503 146.181 414.866 146.181H415.785C416.149 146.181 416.442 146.474 416.442 146.838V520.229C416.442 520.593 416.149 520.886 415.785 520.886Z" fill="#EFAF7A"/>
<path d="M425.601 160.31L438.414 166.804L438.243 150.423L429.357 145L425.601 151.645V160.31Z" fill="#F49076"/>
<path d="M282.205 194.285C282.104 194.841 281.832 195.427 281.397 195.932C280.448 197.043 278.853 196.881 278.116 196.174C277.379 195.467 277.55 193.993 278.499 192.871C278.974 192.316 280.267 191.276 280.549 187.913" stroke="#F47756" stroke-miterlimit="10" stroke-linecap="round"/>
<path d="M438.414 166.805L430.538 168.885L417.714 162.391L425.6 160.311L438.414 166.805Z" fill="#F47756"/>
<path d="M276.925 117.064V184.62H278.712V117.064L280.732 117.589V184.751H282.489V118.892" stroke="#EFAF7A" stroke-width="0.5" stroke-miterlimit="10"/>
<path d="M278.924 191.407L277.611 191.104C276.268 190.791 275.097 189.488 274.774 187.953L273.481 181.691C273.279 180.722 273.451 179.783 273.956 179.126L274.945 177.843C275.491 177.136 276.379 177.096 277.268 176.975L279.297 176.672C280.267 176.894 281.236 178.52 281.781 179.54L282.65 181.186C283.104 182.045 283.255 183.014 283.064 183.863L283.296 190.801C282.104 191.559 280.277 191.72 278.924 191.407Z" fill="#F47756"/>
<path d="M281.529 191.094L280.216 190.791C278.874 190.478 277.702 189.175 277.379 187.64L276.087 181.378C275.885 180.409 276.056 179.469 276.561 178.813L277.551 177.53C278.096 176.823 278.974 176.53 279.903 176.742L281.953 177.217C282.923 177.439 283.831 178.197 284.377 179.217L285.245 180.863C285.699 181.722 285.851 182.691 285.659 183.539L284.356 189.256C284.043 190.65 282.872 191.407 281.529 191.094Z" fill="#F49076"/>
<path d="M415.139 148.353V104.995C415.139 104.935 415.25 104.924 415.26 104.985L403.658 153.514" stroke="#EFAF7A" stroke-miterlimit="10"/>
<path d="M411 153.332L288.951 110.409" stroke="#EFD3B1" stroke-miterlimit="10" stroke-linecap="round"/>
<path d="M275.157 113.883L289.092 110.307C289.284 110.277 289.435 110.469 289.364 110.651L286.436 117.488C286.355 117.67 286.507 117.862 286.699 117.832L302.309 115.337C302.501 115.307 302.653 115.509 302.572 115.69L299.543 122.023C299.452 122.215 299.623 122.417 299.825 122.366L312.205 119.165C312.407 119.114 312.579 119.316 312.488 119.498L309.771 125.719C309.691 125.911 309.862 126.103 310.054 126.053L323.302 122.74C323.504 122.689 323.676 122.902 323.585 123.083L320.414 129.557C320.323 129.739 320.485 129.951 320.687 129.901L334.187 126.83C334.389 126.78 334.551 126.992 334.46 127.184L331.32 133.435C331.219 133.627 331.41 133.85 331.612 133.779L343.739 129.961C343.941 129.901 344.123 130.103 344.042 130.294L341.185 136.809C341.104 137.001 341.276 137.203 341.478 137.142L353.756 133.627C353.958 133.567 354.13 133.769 354.049 133.961L351.181 140.424C351.101 140.606 351.262 140.808 351.464 140.768L365.176 137.435C365.378 137.384 365.54 137.586 365.459 137.768L362.581 144.414C362.501 144.606 362.672 144.808 362.874 144.747L375.072 141.151C375.274 141.091 375.446 141.293 375.365 141.485L372.598 147.898C372.517 148.09 372.699 148.292 372.901 148.231L384.17 144.444C384.372 144.373 384.564 144.585 384.473 144.777L381.504 151.14C381.413 151.342 381.605 151.544 381.807 151.473L393.015 147.524C393.207 147.454 393.399 147.646 393.328 147.837L391.026 154.291C390.955 154.493 391.157 154.685 391.359 154.594L401.548 150.766C401.659 150.726 401.77 150.837 401.729 150.948L399.72 156.23C399.68 156.321 399.771 156.422 399.872 156.392L410.807 153.402" stroke="#EFD3B1" stroke-miterlimit="10"/>
<path d="M404.264 163.926L270.947 116.912C270.169 116.63 270.078 115.569 270.805 115.165L273.895 113.448C274.42 113.155 275.057 113.105 275.622 113.307L411.999 160.492L404.264 163.926Z" fill="#F47756"/>
<path d="M274.976 113.802L411.625 160.199C411.635 160.199 411.645 160.199 411.645 160.189V153.554" stroke="#EFD3B1" stroke-miterlimit="10" stroke-linecap="round" stroke-linejoin="round"/>
<path d="M196.508 486.8L196.892 526.118L222.943 526.289L222.751 484.154L196.508 486.8Z" fill="#5570BA"/>
</svg>
