<svg width="582" height="571" fill="none" xmlns="http://www.w3.org/2000/svg"><path d="M226.85 464.863l-9.976-11.18-20.528 2.99-2.939 36.51 26.991 5.221 6.452-33.541z" fill="#BCBCA3"/><path opacity=".5" d="M217.672 454.572l-.808 5.171-20.852.798v2.151l20.347.253-.677 4.333-20.518.777v2.141l20.024.263-.798 5.11-19.62.717-1.363 16.897 26.991 5.221 6.452-33.54-9.178-10.292z" fill="#3F2C23"/><path opacity=".3" d="M236.352 293.524l-.424-3.757 5.917 5.1-5.493-1.343zm2.535 2.949l7.391 6.171-1.898-5.09-5.493-1.081z" fill="#3F2C23"/><path d="M170.153 352.122l-.394-5.242-3.009.374-.313-4.192-2.332.283-.323-3.545-3.423.505.313 3.454-2.343.283.192 2.555-4.049.495.444 6.009 7.068-.858.061.858 8.108-.979z" fill="#59807E"/><path opacity=".6" d="M160.611 347.213l-.394-2.201 1.505-1.313v-2.818l2.039-1.081-3.402.505.313 3.454-2.343.283.192 2.555-4.049.495.444 6.009 3.817-.464-.495-4.515 2.373-.909z" fill="#FFF9C4"/><path d="M482.277 523.421c0-16.291-87.263-11.413-191.308-11.413-104.044 0-188.389 13.21-188.389 29.491 0 16.291 84.345 29.501 188.389 29.501 104.045 0 191.308-31.289 191.308-47.579z" fill="#EFD3B1"/><path d="M418.552 506.231c-26.708 0-106.993 2.576-151.17 2.576-65.119 0-117.908 8.837-117.908 19.734 0 10.908 52.789 19.745 117.908 19.745s117.919-8.837 117.919-19.745c0-.515-.121-1.01-.343-1.514 8.704 2.1 20.538 3.403 33.594 3.403 26.708 0 48.357-5.413 48.357-12.089 0-6.696-21.649-12.11-48.357-12.11z" fill="#EFAF7A"/><path d="M296.563 253.217l-2.383-.071-1.656 83.968 2.383.071 1.656-83.968zM291 265.568l-2.383-.07-1.656 83.967 2.383.071L291 265.568zm10.34 13.342l-2.393-.071-1.656 83.968 2.393.071 1.656-83.968zm-97.612-37.924l-1.818.182 1.151 78.504 1.818-.172-1.151-78.514zm-5.282 12.948l-1.828.171 1.495 78.302 1.827-.171-1.494-78.302zm15.611 9.12l-1.818.171.556 78.595 1.817-.181-.555-78.585zm144.203 211.96l.242 53.659 7.583.384v-54.043h-7.825zm-30.808-2.232l.667 53.204 7.583.394-.414-53.598h-7.836zm17.519-169.158l-3.524-.142 3.04 225.979 3.514.141-3.03-225.978z" fill="#5570BA"/><path d="M330.512 320.258l-5.948-.233 1.394 205.759 5.947.232-1.393-205.758z" fill="#5570BA"/><path d="M317.92 227.2l-5.281-3.181-6.886 5.928-1.515 270.235 8.563.434L317.92 227.2z" fill="#A5BFF9"/><path d="M317.95 342.093l-.03-114.893-5.281-3.181-.222.202-.586 118.377 6.119-.505z" fill="#5570BA"/><path d="M238.937 206.334l-4.402-2.949-4.171 2.949v98.148h8.573v-98.148z" fill="#A5BFF9"/><path d="M239.331 305.704v-98.137l-4.402-2.949-.202.141v100.945h4.604z" fill="#5570BA"/><path d="M188.944 259.367l-4.796-3.484-3.766 4.131-1.363 97.067 10.4-.788-.475-96.926z" fill="#A5BFF9"/><path opacity=".3" d="M189.601 349.849l-.656-90.482-4.796-3.484-.899.99.636 94.158 5.715-1.182z" fill="#5570BA"/><path d="M268.584 238.633l-3.05-3-2.837 2.828-4.887 261.913 5.886.161 4.888-261.902z" fill="#A5BFF9"/><path d="M267.059 320.611l1.524-81.978-2.989-2.939-1.06 84.917h2.525z" fill="#5570BA"/><path d="M366.751 363.019l-122.947-76.413-115.596 75.757.404 5.433 113.607 31.451 125.058-30.218-.526-6.01z" fill="#A5BFF9"/><path d="M367.276 368.948l-122.947-76.414-116.051 75.101 114.466 37.54 124.532-36.227z" fill="#5570BA"/><path d="M173.92 364.343l70.551-39.035 74.126 41.499v28.996l-144.677-1.142v-30.318z" fill="#7A99DD"/><path d="M244.865 336.993l-13.914 8.817v9.635l-10.229 4.696.101-10.867-46.903 24.431v20.956l69.622 1.788 1.323-59.456z" fill="#A5BFF9"/><path d="M187.43 344.325l-3.776-2.464-5.362 3.676v50.912l9.32-1.07-.182-51.054z" fill="#A5BFF9"/><path opacity=".3" d="M187.612 394.51l-.182-50.185-3.776-2.464-.636.434v53.457l4.594-1.242z" fill="#5570BA"/><path d="M318.597 394.177v-27.37l-74.126-41.499-.778 68.374 74.904.495z" fill="#7A99DD"/><path d="M366.751 401.64l-122.947-51.79-116.061 50.891 1.06 4.111 113.416 21.34 125.057-20.603-.525-3.949z" fill="#A5BFF9"/><path d="M367.276 405.66l-122.947-51.791-116.051 50.892 114.466 25.451 124.532-24.552z" fill="#5570BA"/><path d="M174.242 405.842l70.087-29.32 70.763 31.794-.121 27.996-140.729-.919v-29.551z" fill="#7A99DD"/><path opacity=".4" d="M243.673 400.529l-5.563 2.959.101 6.858-26.981 7.1-2.979-9.009-4.523 26.31 40.339 8.15-.394-42.368z" fill="#A5BFF9"/><path opacity=".3" d="M314.971 436.312l.121-27.996-70.763-31.794-1.454 56.326 72.096 3.464z" fill="#7A99DD"/><path d="M367.277 441.382l-122.614-33.066-116.455 32.106.101 4.323 113.91 13.271 124.866-12.776.192-3.858z" fill="#A5BFF9"/><path opacity=".3" d="M194.387 432.353l2.121-10.867-41.996 11.695-.666 3.626 40.541-4.454z" fill="#684D69"/><path d="M367.276 445.22l-122.947-32.268-116.051 31.712 114.466 15.857 124.532-15.301z" fill="#5570BA"/><path d="M174.242 445.442l72.248-15.463 68.602 15.847-.121 39.398-140.729-.919v-38.863z" fill="#7A99DD"/><path d="M245.662 449.32l-31.797 4.202-11.531 22.229 41.339 7.655 1.989-34.086z" fill="#A5BFF9"/><path d="M246.722 429.889l-1.06 55.497 69.552.495v-40.186l-68.492-15.806z" fill="#7A99DD"/><path d="M367.075 472.287l-123.796-16.796-114.869 16.553-.202 3.959 114.011 9.353 124.866-8.989-.01-4.08z" fill="#A5BFF9"/><path opacity=".3" d="M181.271 471.055c4.382-2.303 5.947-3.959 7.149-7.575l-48.226 6.423-.262 5.101 41.339-3.949z" fill="#684D69"/><path d="M367.276 476.326l-122.947-14.654-116.051 14.402 114.597 9.807 124.401-9.555z" fill="#5570BA"/><path d="M164.186 478.932l78.871-8.504 86.597 8.373.585 48.195-166.386-1.101.333-46.963z" fill="#7A99DD"/><path d="M243.057 470.428v55.992l74.61.485 3.504-49.922-78.114-6.555z" fill="#7A99DD"/><path d="M303.461 293.716l36.593-15.756.202 59.204-38.158 7.413 1.363-50.861z" fill="#A5BFF9"/><path d="M340.054 277.96l24.335 18.281-.283 56.982-24.052-16.311V277.96z" fill="#7A99DD"/><path d="M302.098 344.578l30.211 11.857 31.797-3.212-24.052-16.311-37.956 7.666z" fill="#5570BA"/><path d="M309.65 517.008h-19.478v11.857h19.478v-11.857zm1.989-12.352h-19.478v11.857h19.478v-11.857z" fill="#EA6A50"/><path d="M321.576 493.789h-19.478v11.856h19.478v-11.856zm5.17 23.713h-19.478v11.857h19.478v-11.857z" fill="#EA6A50"/><path d="M331.118 504.656H311.64v11.857h19.478v-11.857z" fill="#8D8E74"/><path d="M338.075 495.263h-19.478v11.857h19.478v-11.857z" fill="#EA6A50"/><path d="M344.033 506.878h-11.926v11.857h11.926v-11.857z" fill="#EA6A50"/><path d="M339.458 517.998h-11.925v11.856h11.925v-11.856z" fill="#8D8E74"/><path d="M324.958 519.967h-11.925v11.857h11.925v-11.857zm-20.074-12.099h-9.542v11.857h9.542v-11.857z" fill="#EA6A50"/><path d="M295.342 505.393h-3.979v11.857h3.979v-11.857z" fill="#F49076"/><path d="M328.926 506.141h-11.925v11.856h11.925v-11.856zm3.383-12.352h-11.925v11.856h11.925v-11.856zm3.776 26.178H324.16v11.857h11.925v-11.857z" fill="#EA6A50"/><path d="M337.872 508.362h-11.925v11.857h11.925v-11.857z" fill="#EA6A50"/><path d="M336.479 502.929h-11.925v11.857h11.925v-11.857zM348 517.745h-11.925v11.857H348v-11.857z" fill="#EA6A50"/><path d="M313.033 519.725h-11.926v11.857h11.926v-11.857zm3.968-13.1h-11.925v11.857h11.925v-11.857zm3.575-12.352h-7.947v10.868h7.947v-10.868z" fill="#F49076"/><path opacity=".5" d="M285.133 478.286v48.407l-30.555-.182.212-51.356 30.343 3.131z" fill="#5570BA"/><path d="M192.388 482.952v43.135l30.555.202-.212-46.458-30.343 3.121zm0-37.389v17.008l30.555-4.151-.212-18.977-30.343 6.12zm0-40.196v17.008l30.666-8.07-.222-18.977-30.444 10.039zm0-46.489v13.392l30.666-13.321-.222-15.765-30.444 15.694zm92.745 79.888v22.401l-30.555-4.141.212-25.4 30.343 7.14zm0-40.954v21.31l-30.555-8.342.212-26.299 30.343 13.331zm0-46.559v15.998l-30.555-12.867.212-20.037 30.343 16.906z" fill="#5570BA"/><path d="M455.185 534.763l-43.257 11.039v-18.513l43.257-9.968v17.442z" fill="#F47756"/><path d="M455.186 517.321l-40.683-11.756-43.358 9.049 40.783 12.675 43.258-9.968z" fill="#F49076"/><path d="M411.928 545.801l-40.783-13.806v-17.381l40.783 12.675v18.512z" fill="#EA6A50"/><path d="M427.296 517.755h-.878a.677.677 0 01-.677-.677v-363.17c0-.374.303-.677.677-.677h.878c.374 0 .677.303.677.677v363.16a.673.673 0 01-.677.687z" fill="#EFD3B1"/><path d="M415.311 277.688l-9.734-5.07 9.734-5.07 9.734 5.07-9.734 5.07zm-9.734-5.07h18.711" stroke="#EFD3B1" stroke-miterlimit="10"/><path d="M415.311 287.252l-9.734-5.07 9.734-5.07 9.734 5.07-9.734 5.07zm-9.734-5.07h18.711" stroke="#EFD3B1" stroke-miterlimit="10"/><path d="M415.311 296.817l-9.734-5.07 9.734-5.07 9.734 5.07-9.734 5.07zm-9.734-5.07h18.711" stroke="#EFD3B1" stroke-miterlimit="10"/><path d="M415.311 306.381l-9.734-5.07 9.734-5.07 9.734 5.07-9.734 5.07zm-9.734-5.07h18.711" stroke="#EFD3B1" stroke-miterlimit="10"/><path d="M415.311 315.935l-9.734-5.07 9.734-5.06 9.734 5.06-9.734 5.07zm-9.734-5.07h18.711" stroke="#EFD3B1" stroke-miterlimit="10"/><path d="M415.311 325.499l-9.734-5.07 9.734-5.07 9.734 5.07-9.734 5.07zm-9.734-5.07h18.711" stroke="#EFD3B1" stroke-miterlimit="10"/><path d="M415.311 335.064l-9.734-5.07 9.734-5.07 9.734 5.07-9.734 5.07zm-9.734-5.07h18.711" stroke="#EFD3B1" stroke-miterlimit="10"/><path d="M415.311 344.628l-9.734-5.07 9.734-5.07 9.734 5.07-9.734 5.07zm-9.734-5.07h18.711" stroke="#EFD3B1" stroke-miterlimit="10"/><path d="M415.311 354.182l-9.734-5.06 9.734-5.07 9.734 5.07-9.734 5.06zm-9.734-5.06h18.711" stroke="#EFD3B1" stroke-miterlimit="10"/><path d="M415.311 363.746l-9.734-5.07 9.734-5.07 9.734 5.07-9.734 5.07zm-9.734-5.07h18.711" stroke="#EFD3B1" stroke-miterlimit="10"/><path d="M415.311 373.311l-9.734-5.07 9.734-5.07 9.734 5.07-9.734 5.07zm-9.734-5.07h18.711" stroke="#EFD3B1" stroke-miterlimit="10"/><path d="M415.311 382.875l-9.734-5.07 9.734-5.07 9.734 5.07-9.734 5.07zm-9.734-5.07h18.711" stroke="#EFD3B1" stroke-miterlimit="10"/><path d="M415.311 392.439l-9.734-5.07 9.734-5.07 9.734 5.07-9.734 5.07zm-9.734-5.07h18.711" stroke="#EFD3B1" stroke-miterlimit="10"/><path d="M415.311 401.994l-9.734-5.07 9.734-5.06 9.734 5.06-9.734 5.07zm-9.734-5.07h18.711" stroke="#EFD3B1" stroke-miterlimit="10"/><path d="M415.311 411.558l-9.734-5.07 9.734-5.07 9.734 5.07-9.734 5.07zm-9.734-5.07h18.711" stroke="#EFD3B1" stroke-miterlimit="10"/><path d="M415.311 421.122l-9.734-5.07 9.734-5.07 9.734 5.07-9.734 5.07zm-9.734-5.07h18.711" stroke="#EFD3B1" stroke-miterlimit="10"/><path d="M415.311 430.686l-9.734-5.07 9.734-5.07 9.734 5.07-9.734 5.07zm-9.734-5.07h18.711" stroke="#EFD3B1" stroke-miterlimit="10"/><path d="M415.311 439.725l-9.734-5.07 9.734-5.07 9.734 5.07-9.734 5.07zm-9.734-5.07h18.711" stroke="#EFD3B1" stroke-miterlimit="10"/><path d="M415.311 449.28l-9.734-5.07 9.734-5.06 9.734 5.06-9.734 5.07zm-9.734-5.07h18.711" stroke="#EFD3B1" stroke-miterlimit="10"/><path d="M415.311 458.844l-9.734-5.07 9.734-5.07 9.734 5.07-9.734 5.07zm-9.734-5.07h18.711" stroke="#EFD3B1" stroke-miterlimit="10"/><path d="M415.311 468.409l-9.734-5.07 9.734-5.07 9.734 5.07-9.734 5.07zm-9.734-5.071h18.711" stroke="#EFD3B1" stroke-miterlimit="10"/><path d="M415.311 477.973l-9.734-5.07 9.734-5.07 9.734 5.07-9.734 5.07zm-9.734-5.071h18.711" stroke="#EFD3B1" stroke-miterlimit="10"/><path d="M415.311 487.527l-9.734-5.06 9.734-5.07 9.734 5.07-9.734 5.06zm-9.734-5.06h18.711" stroke="#EFD3B1" stroke-miterlimit="10"/><path d="M415.311 497.091l-9.734-5.07 9.734-5.07 9.734 5.07-9.734 5.07zm-9.734-5.07h18.711" stroke="#EFD3B1" stroke-miterlimit="10"/><path d="M415.311 506.656l-9.734-5.07 9.734-5.07 9.734 5.07-9.734 5.07zm-9.734-5.071h18.711m-8.977-319.914l-9.734-5.06 9.734-5.069 9.734 5.069-9.734 5.06zm-9.734-5.06h18.711" stroke="#EFD3B1" stroke-miterlimit="10"/><path d="M415.311 191.236l-9.734-5.07 9.734-5.07 9.734 5.07-9.734 5.07zm-9.734-5.07h18.711" stroke="#EFD3B1" stroke-miterlimit="10"/><path d="M415.311 200.8l-9.734-5.07 9.734-5.07 9.734 5.07-9.734 5.07zm-9.734-5.071h18.711" stroke="#EFD3B1" stroke-miterlimit="10"/><path d="M415.311 210.364l-9.734-5.07 9.734-5.07 9.734 5.07-9.734 5.07zm-9.734-5.07h18.711" stroke="#EFD3B1" stroke-miterlimit="10"/><path d="M415.311 219.929l-9.734-5.07 9.734-5.07 9.734 5.07-9.734 5.07zm-9.734-5.071h18.711" stroke="#EFD3B1" stroke-miterlimit="10"/><path d="M415.311 229.482l-9.734-5.07 9.734-5.059 9.734 5.059-9.734 5.07zm-9.734-5.069h18.711" stroke="#EFD3B1" stroke-miterlimit="10"/><path d="M415.311 239.047l-9.734-5.07 9.734-5.07 9.734 5.07-9.734 5.07zm-9.734-5.07h18.711" stroke="#EFD3B1" stroke-miterlimit="10"/><path d="M415.311 248.611l-9.734-5.07 9.734-5.07 9.734 5.07-9.734 5.07zm-9.734-5.07h18.711" stroke="#EFD3B1" stroke-miterlimit="10"/><path d="M415.311 258.176l-9.734-5.07 9.734-5.07 9.734 5.07-9.734 5.07zm-9.734-5.071h18.711" stroke="#EFD3B1" stroke-miterlimit="10"/><path d="M415.311 267.74l-9.734-5.07 9.734-5.07 9.734 5.07-9.734 5.07zm-9.734-5.071h18.711" stroke="#EFD3B1" stroke-miterlimit="10"/><path d="M415.139 163.351l-11.784 5.999v-17.675l11.784-5.999v17.675z" fill="#F47756"/><path d="M415.14 163.421l12.813 6.494v-17.674l-12.813-6.484v17.664z" fill="#F49076"/><path d="M415.14 148.353v-43.358c0-.06.111-.071.121-.01l12.006 47.993" stroke="#EFD3B1" stroke-miterlimit="10"/><path d="M415.139 146.969l8.078-6.747a.558.558 0 000-.888l-7.29-6.09a.56.56 0 010-.889l4.332-3.626a.56.56 0 000-.889l-4.484-3.737a.558.558 0 010-.888l2.777-2.323a.56.56 0 000-.889l-2.464-2.05a.56.56 0 010-.889l1.333-1.111a.56.56 0 000-.889l-2.413-2.02" stroke="#EFD3B1" stroke-miterlimit="10"/><path d="M415.018 146.969l-7.502-6.747a.584.584 0 010-.888l6.765-6.09a.585.585 0 000-.889l-4.029-3.626a.586.586 0 010-.889l4.161-3.737a.585.585 0 000-.888l-2.575-2.323a.585.585 0 010-.889l2.282-2.05a.586.586 0 000-.889l-1.242-1.111a.585.585 0 010-.889l2.241-2.02" stroke="#EFD3B1" stroke-miterlimit="10"/><path d="M404.366 517.291h-.879a.676.676 0 01-.676-.677V153.908c0-.374.302-.677.676-.677h.879c.373 0 .676.303.676.677v362.696a.679.679 0 01-.676.687z" fill="#EFAF7A"/><path d="M417.714 162.391l12.824 6.494L429.356 145l-8.431 1.959-3.12 5.373-.091 10.059z" fill="#F47756"/><path d="M415.785 520.886h-.919a.655.655 0 01-.656-.657V146.838c0-.364.293-.657.656-.657h.919c.364 0 .657.293.657.657v373.391a.656.656 0 01-.657.657z" fill="#EFAF7A"/><path d="M425.601 160.31l12.813 6.494-.171-16.381-8.886-5.423-3.756 6.645v8.665z" fill="#F49076"/><path d="M282.205 194.285a3.535 3.535 0 01-.808 1.647c-.949 1.111-2.544.949-3.281.242-.737-.707-.566-2.181.383-3.303.475-.555 1.768-1.595 2.05-4.958" stroke="#F47756" stroke-miterlimit="10" stroke-linecap="round"/><path d="M438.414 166.805l-7.876 2.08-12.824-6.494 7.886-2.08 12.814 6.494z" fill="#F47756"/><path d="M276.925 117.064v67.556h1.787v-67.556l2.02.525v67.162h1.757v-65.859" stroke="#EFAF7A" stroke-width=".5" stroke-miterlimit="10"/><path d="M278.924 191.407l-1.313-.303c-1.343-.313-2.514-1.616-2.837-3.151l-1.293-6.262c-.202-.969-.03-1.908.475-2.565l.989-1.283c.546-.707 1.434-.747 2.323-.868l2.029-.303c.97.222 1.939 1.848 2.484 2.868l.869 1.646c.454.859.605 1.828.414 2.677l.232 6.938c-1.192.758-3.019.919-4.372.606z" fill="#F47756"/><path d="M281.529 191.094l-1.313-.303c-1.342-.313-2.514-1.616-2.837-3.151l-1.292-6.262c-.202-.969-.031-1.909.474-2.565l.99-1.283c.545-.707 1.423-1 2.352-.788l2.05.475c.97.222 1.878.98 2.424 2l.868 1.646c.454.859.606 1.828.414 2.676l-1.303 5.717c-.313 1.394-1.484 2.151-2.827 1.838z" fill="#F49076"/><path d="M415.139 148.353v-43.358c0-.06.111-.071.121-.01l-11.602 48.529" stroke="#EFAF7A" stroke-miterlimit="10"/><path d="M411 153.332l-122.049-42.923" stroke="#EFD3B1" stroke-miterlimit="10" stroke-linecap="round"/><path d="M275.157 113.883l13.935-3.576a.253.253 0 01.272.344l-2.928 6.837a.246.246 0 00.263.344l15.61-2.495c.192-.03.344.172.263.353l-3.029 6.333a.244.244 0 00.282.343l12.38-3.201c.202-.051.374.151.283.333l-2.717 6.221a.244.244 0 00.283.334l13.248-3.313c.202-.051.374.162.283.343l-3.171 6.474a.242.242 0 00.273.344l13.5-3.071c.202-.05.364.162.273.354l-3.14 6.251c-.101.192.09.415.292.344l12.127-3.818c.202-.06.384.142.303.333l-2.857 6.515c-.081.192.091.394.293.333l12.278-3.515a.245.245 0 01.293.334l-2.868 6.463a.252.252 0 00.283.344l13.712-3.333a.242.242 0 01.283.333l-2.878 6.646c-.08.192.091.394.293.333l12.198-3.596a.245.245 0 01.293.334l-2.767 6.413a.25.25 0 00.303.333l11.269-3.787c.202-.071.394.141.303.333l-2.969 6.363a.244.244 0 00.303.333l11.208-3.949c.192-.07.384.122.313.313l-2.302 6.454a.244.244 0 00.333.303l10.189-3.828a.143.143 0 01.181.182l-2.009 5.282c-.04.091.051.192.152.162l10.935-2.99" stroke="#EFD3B1" stroke-miterlimit="10"/><path d="M404.264 163.926l-133.317-47.014c-.778-.282-.869-1.343-.142-1.747l3.09-1.717a2.108 2.108 0 011.727-.141l136.377 47.185-7.735 3.434z" fill="#F47756"/><path d="M274.976 113.802l136.649 46.397c.01 0 .02 0 .02-.01v-6.635" stroke="#EFD3B1" stroke-miterlimit="10" stroke-linecap="round" stroke-linejoin="round"/><path d="M196.508 486.8l.384 39.318 26.051.171-.192-42.135-26.243 2.646z" fill="#5570BA"/></svg>