<svg width="601" height="572" viewBox="0 0 601 572" fill="none" xmlns="http://www.w3.org/2000/svg">
<path d="M288.979 270.996L259.075 268.975V154.189L288.979 158.623V270.996Z" fill="#B8D0E8"/>
<path d="M259.075 163.312V175.105L288.979 179.539V167.737L259.075 163.312Z" fill="#8CB0E5"/>
<path d="M259.075 181.815V193.617L288.979 198.042V186.24L259.075 181.815Z" fill="#8CB0E5"/>
<path d="M259.075 200.584V212.387L288.979 216.82V205.018L259.075 200.584Z" fill="#8CB0E5"/>
<path d="M259.075 218.557V230.36L288.979 234.784V222.982L259.075 218.557Z" fill="#8CB0E5"/>
<path d="M232.839 267.202L259.076 268.975V154.189L232.839 167.902V267.202Z" fill="#8CB0E5"/>
<path d="M232.838 174.96V186.826L259.075 175.106V163.039L232.838 174.96Z" fill="#889FC1"/>
<path d="M232.774 192.723V204.79L259.076 193.618V181.551L232.774 192.723Z" fill="#889FC1"/>
<path d="M232.774 210.366V222.434L259.076 212.386V200.319L232.774 210.366Z" fill="#889FC1"/>
<path d="M232.838 228.047V240.123L259.075 230.359V218.292L232.838 228.047Z" fill="#889FC1"/>
<path d="M362.911 251.377L321.205 248.562V88.5037L362.911 94.6837V251.377Z" fill="#B8D0E8"/>
<path d="M321.205 101.22V117.676L362.911 123.847V107.391L321.205 101.22Z" fill="#8CB0E5"/>
<path d="M321.205 127.019V143.474L362.911 149.654V133.199L321.205 127.019Z" fill="#8CB0E5"/>
<path d="M321.205 153.202V169.657L362.911 175.837V159.382L321.205 153.202Z" fill="#8CB0E5"/>
<path d="M321.205 178.26V194.715L362.911 200.886V184.44L321.205 178.26Z" fill="#8CB0E5"/>
<path d="M284.621 246.102L321.207 248.562V88.5037L284.621 107.62V246.102Z" fill="#8CB0E5"/>
<path d="M284.619 117.466V134.003L321.205 117.676V100.845L284.619 117.466Z" fill="#889FC1"/>
<path d="M284.537 142.23V159.061L321.206 143.474V126.643L284.537 142.23Z" fill="#889FC1"/>
<path d="M284.537 166.832V183.663L321.206 169.657V152.827L284.537 166.832Z" fill="#889FC1"/>
<path d="M284.619 191.497V208.328L321.205 194.715V177.885L284.619 191.497Z" fill="#889FC1"/>
<path d="M373.689 305.745L347.067 318.215V21.9136L373.689 9.45312V305.745Z" fill="#8CB0E5"/>
<path d="M347.067 47.6208V51.2867L373.689 38.8262V35.1511L347.067 47.6208Z" fill="#889FC1"/>
<path d="M347.067 73.7302V77.3961L373.689 64.9356V61.2605L347.067 73.7302Z" fill="#889FC1"/>
<path d="M347.067 98.2034V101.879L373.689 89.4089V85.7429L347.067 98.2034Z" fill="#889FC1"/>
<path d="M347.067 121.049V124.724L373.689 112.255V108.589L347.067 121.049Z" fill="#889FC1"/>
<path d="M347.067 146.345V150.02L373.689 137.55V133.875L347.067 146.345Z" fill="#889FC1"/>
<path d="M373.726 305.745L400.347 316.404V20.1035L373.726 9.45312V305.745Z" fill="#889FC1"/>
<path d="M468.107 15.9255C446.349 2.85244 416.016 -2.76988 382.328 2.02966V340.512L468.107 326.808V15.9255Z" fill="#8CB0E5"/>
<path opacity="0.71" d="M468.107 27.2885C446.349 14.2155 416.016 8.59316 382.328 13.3927V351.875L468.107 338.171V27.2885Z" fill="url(#paint0_linear)"/>
<path opacity="0.71" d="M468.107 56.1594C446.349 43.0863 416.016 37.464 382.328 42.2635V313.369L468.107 299.665V56.1594Z" fill="url(#paint1_linear)"/>
<path opacity="0.71" d="M468.107 85.0388C446.349 71.9657 416.016 66.3434 382.328 71.1429V321.121L468.107 363.12V85.0388Z" fill="url(#paint2_linear)"/>
<path opacity="0.71" d="M468.107 113.151C446.349 100.078 416.016 94.4555 382.328 99.255V349.233L468.107 335.53V113.151Z" fill="url(#paint3_linear)"/>
<path d="M468.107 48.5624C446.349 35.4894 416.016 29.8671 382.328 34.6666V323.508L468.107 309.804V48.5624Z" fill="#8CB0E5"/>
<path opacity="0.71" d="M468.107 52.0817C446.349 39.0087 416.016 33.3864 382.328 38.1859V319.54L468.107 305.836V52.0817Z" fill="url(#paint4_linear)"/>
<path d="M468.107 73.3549C446.349 60.2819 416.016 54.6596 382.328 59.4591V303.678L468.107 289.974V73.3549Z" fill="#8CB0E5"/>
<path opacity="0.71" d="M468.107 76.8749C446.349 63.8019 416.016 58.1796 382.328 62.9791V313.369L468.107 299.665V76.8749Z" fill="url(#paint5_linear)"/>
<path d="M468.107 98.1577C446.349 85.0846 416.016 79.4623 382.328 84.2618V334.231L468.107 320.527V98.1577Z" fill="#8CB0E5"/>
<path opacity="0.71" d="M468.107 100.91C446.349 87.8366 416.016 82.2143 382.328 87.0138V336.992L468.107 323.288V100.91Z" fill="url(#paint6_linear)"/>
<path d="M468.107 122.192C446.349 109.119 416.016 103.496 382.328 108.296V358.274L468.107 344.57V122.192Z" fill="#8CB0E5"/>
<path opacity="0.71" d="M468.107 124.953C446.349 111.88 416.016 106.257 382.328 111.057V346.207L468.107 332.503V124.953Z" fill="url(#paint7_linear)"/>
<path d="M468.107 146.226C446.349 133.153 416.016 127.531 382.328 132.33V312.93L468.107 299.226V146.226Z" fill="#8CB0E5"/>
<path opacity="0.71" d="M468.107 149.426C446.349 136.353 416.016 130.731 382.328 135.53V318.214L468.107 304.511V149.426Z" fill="url(#paint8_linear)"/>
<path d="M468.107 170.699C446.349 157.626 416.016 152.004 382.328 156.804V268.427L468.107 254.723V170.699Z" fill="#8CB0E5"/>
<path opacity="0.4" d="M463.134 216.263C425.917 216.263 394.971 123.481 388.645 1.25244C386.552 1.47185 384.449 1.73697 382.328 2.03865V340.521L468.107 326.817V215.705C466.462 216.071 464.807 216.263 463.134 216.263Z" fill="#8CB0E5"/>
<path d="M320.258 178.189C292.764 200.213 283.164 235.24 278.004 255.863C273.193 275.146 207.08 232.101 186.508 274.897C165.936 317.693 176.407 361.417 202.269 395.09C224.016 423.404 278.004 423.223 278.004 423.223L505.449 414.432V178.189C505.449 178.189 471.359 147.284 426.993 147.284C387.046 147.284 345.99 157.595 320.258 178.189Z" fill="#AEC6FC"/>
<path d="M420.851 140.657C401.915 165.619 394.283 196.318 390.743 219.653C387.438 241.499 342.932 201.697 328.744 250.187C314.555 298.677 330.527 357.925 345.581 377.674C360.635 397.423 368.608 408.208 368.608 408.208C368.608 408.208 500.551 435.469 542.187 408.208C593.17 374.827 516.204 345.716 566.679 254.231C598.659 196.267 524.89 105.654 494.337 105.654C466.852 105.654 438.58 117.322 420.851 140.657Z" fill="#7194F8"/>
<g clip-path="url(#clip0)">
<path d="M476.759 182.533C492.689 182.804 533.956 180.534 528.109 187.412C522.262 194.29 511.879 198.322 495.95 199.475C480.02 200.627 447.523 198.627 442.351 194.324C437.141 190.021 442.014 183.719 450.484 183.719C458.88 183.651 476.759 182.533 476.759 182.533Z" fill="#FA8463"/>
<path d="M472.523 367.968L471.586 104.964" stroke="#4E6093" stroke-width="3.9675" stroke-miterlimit="10"/>
<path d="M481.97 109.2L476.01 138.407" stroke="#4E6093" stroke-width="1.98375" stroke-miterlimit="10"/>
<path d="M452.359 158.161L470.95 182.625" stroke="#4E6093" stroke-width="1.98375" stroke-miterlimit="10"/>
<path d="M431.445 83.3468C432.532 61.7292 469.563 58.5103 482.045 61.8986C494.526 65.287 512.03 79.9585 499.549 91.8177C517.652 90.1235 532.045 98.0183 530.771 108.759C529.497 119.5 493.289 123.431 468.926 113.266C444.563 103.101 430.807 95.782 431.445 83.3468Z" fill="#FFCABB"/>
<path d="M520.763 146.607C527.96 147.691 536.993 162.43 530.771 168.631C524.511 174.832 509.519 178.796 498.274 174.29C487.03 169.783 450.185 153.96 448.911 146.065C447.674 138.17 473.274 134.206 482.644 136.476C492.015 138.712 513.267 145.489 520.763 146.607Z" fill="#FA8463"/>
<path d="M471.976 208.715C487.043 214.611 495.102 210.985 512.568 214.374C530.035 217.762 555.672 225.657 550.05 242.599C544.428 259.54 515.08 283.259 470.102 279.87C425.124 276.482 405.746 264.047 395.775 246.563C385.805 229.079 392.027 198.008 413.879 196.314C435.731 194.62 453.235 201.396 471.976 208.715Z" fill="#FFCABB"/>
<path d="M447.674 127.971C462.029 129.225 468.926 131.935 473.274 131.359C477.659 130.783 507.645 130.241 503.896 143.219C500.148 156.196 468.289 157.89 456.407 159.042C444.525 160.16 413.303 165.819 412.066 152.842C410.829 139.83 422.074 125.701 447.674 127.971Z" fill="#FFCABB"/>
<path d="M375.817 301.307C378.082 287.912 396.355 280.768 409.231 275.713C422.106 270.659 492.471 239.37 565.332 283.267C581.404 292.956 602.056 308.977 599.231 318.283C596.406 327.59 584.816 336.252 572.005 337.338C559.198 338.391 537.845 352.543 527.324 351.071C516.802 349.598 493.982 346.404 488.046 347.87C482.11 349.336 461.894 349.352 451.347 344.447C440.799 339.543 410.346 336.411 396.814 330.541C383.251 324.631 373.269 316.378 375.817 301.307Z" fill="#FFCABB"/>
<path d="M446.961 177.518C455.582 178.399 481.182 173.926 478.109 179.415C475.073 184.938 464.053 189.377 452.809 188.937C441.564 188.496 426.796 186.395 427.284 183.651C427.771 180.906 430.357 175.824 446.961 177.518Z" fill="#FFCABB"/>
<path d="M431.744 87.1077C446.437 89.5134 470.35 89.9878 476.085 88.1581C483.581 85.7523 472.336 97.476 476.872 97.7471C481.407 98.0181 495.912 95.4769 504.983 96.7644C513.004 97.8826 523.686 100.797 530.583 109.267C528.222 119.602 492.876 123.261 468.888 113.266C447.111 104.185 433.843 97.3405 431.744 87.1077Z" fill="#FA8463"/>
<path d="M413.428 234.263C419.35 237.381 428.121 246.699 440.153 246.834C452.184 246.97 462.942 237.652 457.319 225.793C464.816 226.369 484.044 234.399 492.777 239.922C501.51 245.445 509.194 252.222 522.762 250.663C534.457 249.342 546.976 237.652 537.68 222.201C546.863 226.809 553.16 233.349 550.087 242.633C544.464 259.574 515.116 283.293 470.138 279.904C465.078 279.532 460.393 279.023 455.97 278.414L450.985 277.668C419.388 272.518 404.208 261.37 395.775 246.597C393.338 242.328 391.876 237.245 391.352 231.959C400.46 231.858 409.605 232.298 413.428 234.263Z" fill="#FA8463"/>
<path d="M375.817 301.308C375.924 300.671 376.1 300.079 376.276 299.487C387.49 301.125 398.833 301.101 406.824 297.351C417.121 292.519 443.388 286.768 459.351 291.265C475.346 295.801 490.196 303.296 497.741 310.934C505.286 318.572 525.711 323.145 538.728 324.659C549.728 325.993 561.81 327.65 575.901 336.718C574.605 336.983 573.315 337.213 572.004 337.339C559.198 338.391 537.844 352.544 527.323 351.071C516.839 349.603 493.982 346.404 488.046 347.87C482.109 349.336 461.894 349.352 451.346 344.447C440.799 339.543 410.345 336.412 396.814 330.541C383.25 324.631 373.269 316.378 375.817 301.308Z" fill="#FA8463"/>
</g>
<path d="M345.436 405.263V291.862" stroke="#4E6093" stroke-width="3.9675" stroke-miterlimit="10"/>
<path d="M323.549 327.385C327.081 337.468 344.365 351.882 344.365 351.882" stroke="#4E6093" stroke-width="1.98375" stroke-miterlimit="10"/>
<path d="M288.951 328.343C288.951 328.343 298.089 346.867 334.029 344.072" stroke="#4E6093" stroke-width="1.98375" stroke-miterlimit="10"/>
<path d="M375.136 342.565C375.136 342.565 359.867 356.265 346.846 360.129" stroke="#4E6093" stroke-width="1.98375" stroke-miterlimit="10"/>
<path d="M344.364 256.032L344.89 280.529" stroke="#4E6093" stroke-width="1.98375" stroke-miterlimit="10"/>
<path d="M355.343 256.498L349.708 281.077" stroke="#4E6093" stroke-width="1.98375" stroke-miterlimit="10"/>
<path d="M369.384 259.211L359.633 281.104" stroke="#4E6093" stroke-width="1.98375" stroke-miterlimit="10"/>
<path d="M328.862 251.839L330.497 285.296" stroke="#4E6093" stroke-width="1.98375" stroke-miterlimit="10"/>
<path d="M314.731 251.948L326.322 279.816" stroke="#4E6093" stroke-width="1.98375" stroke-miterlimit="10"/>
<path d="M306.12 252.661L311.2 287.762" stroke="#4E6093" stroke-width="1.98375" stroke-miterlimit="10"/>
<path d="M285.624 248.25L306.294 280.09" stroke="#4E6093" stroke-width="1.98375" stroke-miterlimit="10"/>
<path d="M346.351 195.53L347.226 224.602" stroke="#4E6093" stroke-width="1.98375" stroke-miterlimit="10"/>
<path d="M362.786 197.721C361.764 197.666 348.918 219.724 348.918 219.724" stroke="#4E6093" stroke-width="1.98375" stroke-miterlimit="10"/>
<path d="M377.444 196.653L353.387 224.191" stroke="#4E6093" stroke-width="1.98375" stroke-miterlimit="10"/>
<path d="M331.896 193.063L336.537 216.683" stroke="#4E6093" stroke-width="1.98375" stroke-miterlimit="10"/>
<path d="M318.791 187.802L331.024 215.724" stroke="#4E6093" stroke-width="1.98375" stroke-miterlimit="10"/>
<path d="M359.693 148.07C362.496 157.058 351.227 163.552 340.629 163.004C330.002 162.456 295.639 158.784 297.449 147.276C300.106 130.342 329.797 130.561 340.424 131.136C350.993 131.712 357.037 139.576 359.693 148.07Z" fill="#FFCABB"/>
<path d="M248.223 220.136C243.114 233.59 259.172 248.551 281.536 251.675C301.418 254.47 413.003 274.007 418.929 254.881C426.141 231.644 387.398 233.59 356.188 222.191C329.708 212.546 307.111 196.625 291.55 195.721C271.58 194.57 253.07 207.421 248.223 220.136Z" fill="#FFCABB"/>
<path d="M380.772 275.569C366.496 281.734 354.847 278.446 346.263 277.049C337.68 275.651 308.718 275.569 300.076 279.515C291.434 283.461 283.464 287.078 272.691 287.379C261.888 287.68 249.305 290.064 244.809 299.6C240.313 309.136 237.247 325.905 250.269 331.358C263.26 336.811 297.682 333.66 317.097 335.715C336.424 337.77 355.022 346.539 370.087 345.963C385.093 345.388 414.61 343.168 431.689 326.837C448.71 310.561 453.965 296.01 449.498 280.775C445.002 265.513 434.55 260.17 420.741 263.101C406.844 266.033 380.772 275.569 380.772 275.569Z" fill="#FFCABB"/>
<path d="M393.385 201.284C399.662 199.174 407.019 195.694 409.617 188.049C412.216 180.404 410.085 170.265 401.939 165.114C391.721 158.647 369.999 154.729 353.621 156.4C337.184 158.072 321.973 161.278 321.973 161.278L321.126 186.405L393.385 201.284Z" fill="#FFCABB"/>
<path d="M344.248 155.66C335.46 148.042 319.169 154.016 309.914 150.591C305.36 148.919 305.389 142.946 311.082 133.986C304.133 136.342 298.528 140.343 297.419 147.248C295.608 158.756 329.971 162.428 340.599 162.976C342.584 163.086 344.598 162.921 346.525 162.565C346.934 160.537 346.992 158.071 344.248 155.66Z" fill="#FA8463"/>
<path d="M388.189 178.76C382.612 172.211 368.686 167.197 356.161 169.197C343.578 171.225 334.352 175.801 333.038 170.156C332.425 167.553 332.338 162.621 332.425 158.099C316.397 160.977 302.208 167.06 299.843 179.39C296.573 196.379 358.205 202.133 377.182 203.038C382.7 203.312 388.306 202.654 393.386 201.311C394.232 191.666 392.918 184.295 388.189 178.76Z" fill="#FA8463"/>
<path d="M281.538 251.703C301.42 254.498 413.005 274.035 418.932 254.909C418.99 254.744 419.019 254.58 419.048 254.415C412.509 251.593 405.034 249.072 394.057 249.1C375.693 249.127 355.986 253.073 345.184 251.018C334.352 248.963 314.616 235.07 300.077 234.44C287.844 233.919 276.107 234.933 258.94 243.263C264.896 247.346 272.721 250.442 281.538 251.703Z" fill="#FA8463"/>
<path d="M394.438 330.645C385.212 326.617 379.373 297.764 353.769 298.942C328.019 300.12 329.391 311.108 312.866 317.739C296.283 324.398 273.306 319.055 262.299 318.397C256.11 318.041 249.074 317.383 241.104 318.753C241.775 324.124 244.373 328.892 250.242 331.358C263.234 336.811 297.655 333.66 317.07 335.715C336.398 337.77 354.995 346.538 370.06 345.963C384.629 345.387 412.86 343.25 430.144 328.152C417.357 331.878 402.146 334.016 394.438 330.645Z" fill="#FA8463"/>
<path d="M396.859 385.222C405.221 404.04 397.325 424.183 397.325 424.183C397.325 424.183 387.584 410.683 379.169 391.811C370.736 372.903 366.851 355.822 366.851 355.822C366.851 355.822 388.48 366.368 396.859 385.222Z" fill="#FFCABB"/>
<path d="M383.198 387.067C399.115 398.024 403.412 417.415 403.412 417.415C403.412 417.415 389.196 411.292 373.225 400.352C357.164 389.359 345.437 377.685 345.437 377.685C345.437 377.685 367.191 376.055 383.198 387.067Z" fill="#FA8463"/>
<path d="M380.064 391.238C395.999 402.178 404.719 415.642 404.719 415.642C404.719 415.642 391.487 408.212 375.534 397.272C359.491 386.278 345.525 377.702 345.525 377.702C345.525 377.702 364.057 380.226 380.064 391.238Z" fill="#FFCABB"/>
<path d="M403.145 375.285C393.458 396.842 402.93 420.996 402.93 420.996C402.93 420.996 414.192 405.723 423.807 384.202C433.386 362.769 437.701 343.217 437.701 343.217C437.701 343.217 412.778 353.817 403.145 375.285Z" fill="#FFCABB"/>
<path d="M411.003 389.573C413.331 410.414 400.951 421.591 400.951 421.591C400.951 421.591 393.6 411.846 391.272 390.933C388.945 370.021 390.538 352.223 390.538 352.223C390.538 352.223 408.694 368.731 411.003 389.573Z" fill="#FA8463"/>
<path d="M382.177 381.319C386.904 396.412 402.213 405.239 402.213 405.239C402.213 405.239 401.085 392.831 396.376 377.773C391.667 362.698 385.149 350.63 385.149 350.63C385.149 350.63 377.432 366.207 382.177 381.319Z" fill="#FA8463"/>
<path d="M424.647 382.501C402.678 397.792 396.869 419.958 396.869 419.958C396.869 419.958 409.876 406.762 431.791 391.453C453.546 376.252 476.822 370.361 476.822 370.361C476.822 370.361 446.438 367.318 424.647 382.501Z" fill="#FA8463"/>
<path d="M419.884 375.106C419.186 383.611 414.62 391.561 411.971 398.186C411.219 400.066 413.081 400.316 416.107 399.743C418.631 395.106 421.281 389.878 423.806 384.22C433.385 362.788 437.7 343.236 437.7 343.236C437.7 343.236 437.628 343.271 437.521 343.325C433.134 350.433 430.09 355.375 426.85 360.836C423.251 366.924 420.583 366.601 419.884 375.106Z" fill="#FA8463"/>
<path d="M401.693 385.885C400.958 370.54 396.787 361.82 390.502 352.635C390.287 355.357 389.141 371.847 391.272 390.934C392.525 402.106 394.638 411.9 396.339 418.597C397.736 415.839 402.606 404.774 401.693 385.885Z" fill="#FFCABB"/>
<ellipse cx="396.052" cy="302.398" rx="4.89834" ry="3.26556" fill="#FA8463"/>
<ellipse cx="409.114" cy="297.499" rx="4.89834" ry="3.26556" fill="#FA8463"/>
<ellipse cx="391.153" cy="290.968" rx="4.89834" ry="3.26556" fill="#FA8463"/>
<path d="M334.199 395.183C336.626 404.626 327.86 414.845 314.545 417.997C301.135 421.174 288.221 416.001 285.788 406.433C283.354 396.864 292.316 386.62 305.733 383.568C319.079 380.534 331.797 385.733 334.199 395.183Z" fill="#FFCABB"/>
<path d="M485.332 379.745C488.58 392.351 478.786 405.449 463.402 409.037C447.899 412.657 432.606 405.259 429.345 392.505C426.084 379.751 436.092 366.597 451.639 363.144C467.036 359.705 482.091 367.164 485.332 379.745Z" fill="#FFCABB"/>
<path d="M355.313 401.551C357.412 409.734 351.383 418.176 341.765 420.42C332.099 422.676 322.476 417.765 320.352 409.486C318.221 401.183 324.424 392.722 334.12 390.585C343.739 388.443 353.207 393.343 355.313 401.551Z" fill="#FA8463"/>
<path d="M385.151 399.285C387.25 407.469 381.221 415.911 371.603 418.154C361.937 420.41 352.314 415.499 350.19 407.22C348.059 398.918 354.262 390.456 363.958 388.319C373.577 386.177 383.052 391.101 385.151 399.285Z" fill="#FFCABB"/>
<path d="M505.074 386.597C507.173 394.781 501.144 403.223 491.525 405.466C481.86 407.722 472.237 402.811 470.112 394.532C467.982 386.229 474.184 377.768 483.881 375.631C493.5 373.489 502.951 378.419 505.074 386.597Z" fill="#FA8463"/>
<path d="M533.815 393.598C535.914 401.782 529.885 410.224 520.267 412.468C510.601 414.723 500.978 409.813 498.854 401.534C496.723 393.231 502.926 384.77 512.622 382.633C522.241 380.491 531.716 385.415 533.815 393.598Z" fill="#FFCABB"/>
<path d="M445.099 397.677C447.199 405.86 441.169 414.302 431.551 416.546C421.885 418.802 412.262 413.891 410.138 405.612C408.008 397.309 414.21 388.848 423.906 386.711C433.525 384.569 443 389.493 445.099 397.677Z" fill="#FA8463"/>
<path d="M535.311 411.86L276.185 409.995L282.261 404.324C284.097 402.61 286.516 401.657 289.028 401.657L531.903 401.657C533.285 401.657 534.611 402.227 535.467 403.311C537.765 406.22 541.502 411.937 535.311 411.86Z" fill="#FFCABB"/>
<path d="M570.634 424.142L-24.881 424.142C-28.95 424.142 -31.819 420.15 -30.5216 416.293L-29.1653 412.262C-28.3505 409.839 -26.0802 408.208 -23.5247 408.208L573.369 408.208C573.369 408.208 578.933 424.246 570.634 424.142Z" fill="#FA8463"/>
<defs>
<linearGradient id="paint0_linear" x1="382.328" y1="181.782" x2="468.109" y2="181.782" gradientUnits="userSpaceOnUse">
<stop stop-color="white"/>
<stop offset="0.9993" stop-color="white"/>
</linearGradient>
<linearGradient id="paint1_linear" x1="382.328" y1="176.969" x2="468.109" y2="176.969" gradientUnits="userSpaceOnUse">
<stop stop-color="white"/>
<stop offset="0.9993" stop-color="white"/>
</linearGradient>
<linearGradient id="paint2_linear" x1="382.328" y1="216.279" x2="468.109" y2="216.279" gradientUnits="userSpaceOnUse">
<stop stop-color="white"/>
<stop offset="0.9993" stop-color="white"/>
</linearGradient>
<linearGradient id="paint3_linear" x1="382.328" y1="223.396" x2="468.109" y2="223.396" gradientUnits="userSpaceOnUse">
<stop stop-color="white"/>
<stop offset="0.9993" stop-color="white"/>
</linearGradient>
<linearGradient id="paint4_linear" x1="382.328" y1="178.013" x2="468.109" y2="178.013" gradientUnits="userSpaceOnUse">
<stop stop-color="white"/>
<stop offset="0.9993" stop-color="white"/>
</linearGradient>
<linearGradient id="paint5_linear" x1="382.328" y1="187.327" x2="468.109" y2="187.327" gradientUnits="userSpaceOnUse">
<stop stop-color="white"/>
<stop offset="0.9993" stop-color="white"/>
</linearGradient>
<linearGradient id="paint6_linear" x1="382.328" y1="211.157" x2="468.109" y2="211.157" gradientUnits="userSpaceOnUse">
<stop stop-color="white"/>
<stop offset="0.9993" stop-color="white"/>
</linearGradient>
<linearGradient id="paint7_linear" x1="382.328" y1="227.776" x2="468.109" y2="227.776" gradientUnits="userSpaceOnUse">
<stop stop-color="white"/>
<stop offset="0.9993" stop-color="white"/>
</linearGradient>
<linearGradient id="paint8_linear" x1="382.328" y1="226.025" x2="468.109" y2="226.025" gradientUnits="userSpaceOnUse">
<stop stop-color="white"/>
<stop offset="0.9993" stop-color="white"/>
</linearGradient>
<clipPath id="clip0">
<rect width="223.691" height="329.821" transform="matrix(-1 0 0 1 600.149 60.7466)" fill="white"/>
</clipPath>
</defs>
</svg>
